#!OML:ASF H:\Not Pregnant\Project 1\Capture day 1\Session 1\non-pregnant.ASF
:FULLY-SPECIFIED
:DEGREES
1077
root -3.67981 16.4466 -3.48941 9.77461 38.5249 -360.074
lowerback 1.13719 1.49729 -0.606252
upperback -5.88713 1.92866 -1.83681
thorax -6.71365 0.95403 -1.71224
lowerneck 26.8985 -9.48028 -32.8226
upperneck -2.2954 -21.8013 39.19
head 3.79997 -13.6228 20.4113
rclavicle 9.20497e-014 -1.07344e-014
rhumerus -43.3066 -16.3644 -73.2545
rradius 25.6274
rwrist 27.1138
rhand -6.74181 -0.803709
rfingers 7.12502
rthumb 19.1191 -29.884
lclavicle 9.20497e-014 -1.07344e-014
lhumerus -43.0847 -2.88036 81.4479
lradius 39.5788
lwrist 40.2829
lhand -15.607 -10.2406
lfingers 7.12502
lthumb 10.5793 19.4731
rfemur -24.9133 -1.84601 15.6226
rtibia 62.3344
rfoot -10.8824 6.55507
rtoes -29.0067
lfemur -24.3607 3.89443 -29.5825
ltibia 32.2792
lfoot -16.3807 -11.3912
ltoes 9.84094
1078
root -3.61709 16.4372 -3.40427 9.68994 39.099 -360.093
lowerback 1.28891 1.34545 -0.640798
upperback -5.80191 1.72399 -1.77145
thorax -6.718 0.855752 -1.61311
lowerneck 26.94 -9.49022 -32.8285
upperneck -2.31322 -21.8214 39.1938
head 3.79865 -13.6373 20.4138
rclavicle 1.03877e-013 3.18055e-015
rhumerus -43.1629 -15.9571 -73.5915
rradius 26.1081
rwrist 26.1274
rhand -7.17945 -0.937874
rfingers 7.12502
rthumb 18.6982 -30.0592
lclavicle 1.03877e-013 3.18055e-015
lhumerus -42.5207 -3.13155 81.6285
lradius 39.6326
lwrist 40.2092
lhand -15.8825 -10.3973
lfingers 7.12502
lthumb 10.3135 19.3298
rfemur -26.1123 -1.72386 15.8095
rtibia 62.4144
rfoot -11.8944 5.12632
rtoes -28.5749
lfemur -23.9204 3.5062 -29.4789
ltibia 32.4433
lfoot -16.752 -11.4013
ltoes 9.65077
1079
root -3.5555 16.4268 -3.31995 9.62582 39.6767 -360.076
lowerback 1.45834 1.19595 -0.717476
upperback -5.71621 1.51988 -1.70862
thorax -6.73249 0.759901 -1.49294
lowerneck 26.9906 -9.5013 -32.8323
upperneck -2.35023 -21.8408 39.2042
head 3.79112 -13.6526 20.4206
rclavicle -2.67614e-014 -4.73108e-014
rhumerus -43.0201 -15.5189 -73.9327
rradius 26.6206
rwrist 25.1607
rhand -7.54633 -1.03275
rfingers 7.12502
rthumb 18.3453 -30.1877
lclavicle -2.67614e-014 -4.73108e-014
lhumerus -41.9514 -3.37666 81.8146
lradius 39.68
lwrist 40.1521
lhand -16.1268 -10.5453
lfingers 7.12502
lthumb 10.0778 19.1934
rfemur -27.2913 -1.56061 15.9583
rtibia 62.3696
rfoot -12.7914 3.79137
rtoes -28.1591
lfemur -23.4761 3.09623 -29.4019
ltibia 32.5958
lfoot -17.1058 -11.4058
ltoes 9.47474
1080
root -3.495 16.4153 -3.2365 9.58337 40.252 -360.024
lowerback 1.65181 1.0487 -0.830767
upperback -5.63529 1.31606 -1.64881
thorax -6.76588 0.666033 -1.3554
lowerneck 27.0482 -9.51166 -32.8347
upperneck -2.39866 -21.8582 39.2182
head 3.77881 -13.6677 20.4302
rclavicle -6.32384e-014 -1.07344e-014
rhumerus -42.8793 -15.0462 -74.2769
rradius 27.1516
rwrist 24.2345
rhand -7.89852 -1.08623
rfingers 7.12502
rthumb 18.0065 -30.2727
lclavicle -6.32384e-014 -1.07344e-014
lhumerus -41.3893 -3.6154 82.0051
lradius 39.7295
lwrist 40.1177
lhand -16.3459 -10.6781
lfingers 7.12502
lthumb 9.86645 19.0707
rfemur -28.4515 -1.3585 16.0668
rtibia 62.1993
rfoot -13.585 2.56349
rtoes -27.8096
lfemur -23.0321 2.67955 -29.3522
ltibia 32.7382
lfoot -17.4452 -11.4088
ltoes 9.28993
1081
root -3.43533 16.4028 -3.15363 9.55781 40.8194 -359.943
lowerback 1.86721 0.909277 -0.975735
upperback -5.55896 1.11998 -1.59373
thorax -6.81621 0.577578 -1.2053
lowerneck 27.119 -9.52487 -32.8292
upperneck -2.46353 -21.8767 39.2369
head 3.76 -13.6849 20.4419
rclavicle 1.72259e-014 1.19271e-014
rhumerus -42.7468 -14.5656 -74.6104
rradius 27.6967
rwrist 23.3649
rhand -8.18881 -1.11505
rfingers 7.12502
rthumb 17.7272 -30.327
lclavicle 1.72259e-014 1.19271e-014
lhumerus -40.8354 -3.85923 82.2028
lradius 39.7811
lwrist 40.1002
lhand -16.5329 -10.7971
lfingers 7.12502
lthumb 9.68602 18.9602
rfemur -29.5843 -1.12292 16.1378
rtibia 61.9001
rfoot -14.2896 1.44522
rtoes -27.6213
lfemur -22.5856 2.27636 -29.3264
ltibia 32.8701
lfoot -17.7751 -11.4196
ltoes 9.09888
1082
root -3.37607 16.3895 -3.07085 9.53977 41.3719 -359.838
lowerback 2.10578 0.778695 -1.14895
upperback -5.4849 0.932884 -1.54237
thorax -6.88153 0.49504 -1.04342
lowerneck 27.1953 -9.54194 -32.8149
upperneck -2.53763 -21.897 39.2575
head 3.73757 -13.7034 20.453
rclavicle 2.31025e-014 2.50469e-014
rhumerus -42.6223 -14.0836 -74.9295
rradius 28.2484
rwrist 22.5675
rhand -8.47019 -1.11003
rfingers 7.12502
rthumb 17.4564 -30.3462
lclavicle 2.31025e-014 2.50469e-014
lhumerus -40.2945 -4.10806 82.4065
lradius 39.8402
lwrist 40.1041
lhand -16.6865 -10.9035
lfingers 7.12502
lthumb 9.53787 18.8606
rfemur -30.6735 -0.854525 16.1743
rtibia 61.4681
rfoot -14.9137 0.431961
rtoes -27.6046
lfemur -22.1237 1.89828 -29.3197
ltibia 32.9861
lfoot -18.0981 -11.4406
ltoes 8.91016
1083
root -3.31666 16.3758 -2.98795 9.52083 41.9096 -359.719
lowerback 2.36489 0.657045 -1.34134
upperback -5.41047 0.755329 -1.49172
thorax -6.95729 0.418336 -0.871536
lowerneck 27.2699 -9.56297 -32.7987
upperneck -2.61751 -21.9206 39.2808
head 3.71554 -13.7236 20.464
rclavicle -3.74709e-014 -3.97569e-015
rhumerus -42.502 -13.612 -75.2241
rradius 28.8006
rwrist 21.8437
rhand -8.71844 -1.08109
rfingers 7.12502
rthumb 17.2175 -30.3383
lclavicle -3.74709e-014 -3.97569e-015
lhumerus -39.7716 -4.36256 82.6194
lradius 39.9135
lwrist 40.1285
lhand -16.8112 -10.9977
lfingers 7.12502
lthumb 9.41754 18.7719
rfemur -31.7052 -0.56599 16.181
rtibia 60.8988
rfoot -15.455 -0.472247
rtoes -27.6914
lfemur -21.6355 1.54693 -29.3253
ltibia 33.0771
lfoot -18.4141 -11.4727
ltoes 8.71292
1084
root -3.25622 16.3622 -2.90466 9.49093 42.422 -359.592
lowerback 2.63948 0.546906 -1.54236
upperback -5.33502 0.591178 -1.44379
thorax -7.03971 0.348777 -0.697831
lowerneck 27.3663 -9.58246 -32.7757
upperneck -2.71364 -21.9421 39.3115
head 3.68489 -13.7452 20.4811
rclavicle 2.24037e-014 4.37326e-015
rhumerus -42.3887 -13.1555 -75.4935
rradius 29.3487
rwrist 21.1876
rhand -8.90617 -1.03188
rfingers 7.12502
rthumb 17.0368 -30.3048
lclavicle 2.24037e-014 4.37326e-015
lhumerus -39.2725 -4.62173 82.8358
lradius 40.0017
lwrist 40.1683
lhand -16.9035 -11.074
lfingers 7.12502
lthumb 9.32847 18.6996
rfemur -32.6639 -0.257497 16.1635
rtibia 60.187
rfoot -15.9211 -1.25357
rtoes -27.8522
lfemur -21.1064 1.2318 -29.3386
ltibia 33.1319
lfoot -18.7199 -11.517
ltoes 8.51585
1085
root -3.19519 16.3497 -2.82102 9.45867 42.9281 -359.462
lowerback 2.92083 0.444216 -1.75019
upperback -5.25861 0.435327 -1.39661
thorax -7.12389 0.283826 -0.520739
lowerneck 27.4603 -9.60754 -32.7485
upperneck -2.81353 -21.969 39.3503
head 3.65688 -13.7701 20.5004
rclavicle 2.12389e-014 -1.19271e-014
rhumerus -42.2746 -12.7318 -75.7307
rradius 29.8847
rwrist 20.6047
rhand -9.05266 -0.960986
rfingers 7.12502
rthumb 16.8957 -30.246
lclavicle 2.12389e-014 -1.19271e-014
lhumerus -38.7895 -4.88766 83.0572
lradius 40.1018
lwrist 40.2133
lhand -16.9548 -11.1405
lfingers 7.12502
lthumb 9.27898 18.6353
rfemur -33.5538 0.0533534 16.1315
rtibia 59.3312
rfoot -16.3005 -1.93793
rtoes -27.998
lfemur -20.5439 0.938833 -29.3522
ltibia 33.138
lfoot -19.0038 -11.5871
ltoes 8.32188
